<svg xmlns="http://www.w3.org/2000/svg" viewBox="0 0 1280 875" preserveAspectRatio="xMidYMid slice">
<defs>
<linearGradient id="bgbx1-u1-l5" x1="0" y1="0" x2="0" y2="1">
<stop offset="0" stop-color="rgb(240,235,226)"/><stop offset="1" stop-color="rgb(236,243,246)"/>
</linearGradient>
<filter id="fbx1-u1-l5-wc" x="-50%" y="-50%" width="200%" height="200%">
<feTurbulence type="fractalNoise" baseFrequency="0.0129" numOctaves="4" seed="7526" result="noise"/>
<feDisplacementMap in="SourceGraphic" in2="noise" scale="51" xChannelSelector="R" yChannelSelector="G"/>
<feGaussianBlur stdDeviation="28"/>
</filter>
<filter id="fbx1-u1-l5-blur" x="-30%" y="-30%" width="160%" height="160%">
<feGaussianBlur stdDeviation="41"/>
</filter>
<filter id="paper-bx1-u1-l5" x="0" y="0" width="100%" height="100%">
<feTurbulence type="fractalNoise" baseFrequency="0.65" numOctaves="3" result="noise"/>
<feColorMatrix type="saturate" values="0" in="noise" result="gray"/>
<feComponentTransfer in="gray" result="alpha"><feFuncA type="linear" slope="0.12"/></feComponentTransfer>
</filter>
<radialGradient id="vigbx1-u1-l5" cx="50%" cy="45%" r="70%">
<stop offset="0" stop-color="rgba(255,255,255,0.45)"/>
<stop offset="1" stop-color="rgba(255,255,255,0)"/>
</radialGradient>
</defs>
<rect width="1280" height="875" fill="url(#bgbx1-u1-l5)"/>
<g filter="url(#fbx1-u1-l5-blur)" opacity="0.85"><ellipse cx="809" cy="311" rx="333" ry="318" fill="#8ab88e" opacity="0.50" filter="url(#fbx1-u1-l5-wc)"/><ellipse cx="448" cy="516" rx="246" ry="253" fill="#d4c86e" opacity="0.49" filter="url(#fbx1-u1-l5-wc)"/><ellipse cx="1199" cy="299" rx="268" ry="185" fill="#a7c9d6" opacity="0.41" filter="url(#fbx1-u1-l5-wc)"/><ellipse cx="1013" cy="811" rx="420" ry="253" fill="#4a6b4d" opacity="0.30" filter="url(#fbx1-u1-l5-wc)"/><ellipse cx="826" cy="312" rx="415" ry="320" fill="#c9b896" opacity="0.40" filter="url(#fbx1-u1-l5-wc)"/><ellipse cx="313" cy="560" rx="247" ry="303" fill="#8ab88e" opacity="0.50" filter="url(#fbx1-u1-l5-wc)"/></g>
<path d="M0 540 Q283.2234432234432 480 400 520 T800 500 T1280 540 L1280 875 L0 875 Z" fill="rgba(138,184,142,0.22)" filter="url(#fbx1-u1-l5-blur)"/><path d="M0 620 Q397.65567765567766 560 600 600 T1280 580 L1280 875 L0 875 Z" fill="rgba(212,200,110,0.2)" filter="url(#fbx1-u1-l5-blur)"/><path d="M0 875 L0 350 L213 403 L427 370 L640 403 L853 409 L1067 391 L1280 369 L1280 875 Z" fill="rgba(201,184,150,0.18)" filter="url(#fbx1-u1-l5-blur)"/><g transform="translate(446.27594627594624,573.3333333333334)" opacity="0.55"><rect x="0" y="20" width="70" height="50" fill="rgba(74,107,77,0.5)"/><path d="M-10 20 L35 -15 L80 20 Z" fill="rgba(74,107,77,0.65)"/><rect x="90" y="35" width="55" height="35" fill="rgba(74,107,77,0.4)"/><path d="M85 35 L117 10 L150 35 Z" fill="rgba(74,107,77,0.55)"/></g><g opacity="0.35"><ellipse cx="1019.9267399267399" cy="493.15750915750914" rx="40" ry="18" fill="rgba(240,240,235,0.45)" filter="url(#fbx1-u1-l5-blur)"/><ellipse cx="901.2454212454212" cy="493.25518925518924" rx="50" ry="23" fill="rgba(240,240,235,0.45)" filter="url(#fbx1-u1-l5-blur)"/><ellipse cx="920" cy="518.3394383394383" rx="60" ry="28" fill="rgba(240,240,235,0.45)" filter="url(#fbx1-u1-l5-blur)"/><ellipse cx="1019.6336996336996" cy="492.63980463980465" rx="70" ry="33" fill="rgba(240,240,235,0.45)" filter="url(#fbx1-u1-l5-blur)"/></g><line x1="1122" y1="677" x2="1122" y2="613" stroke="rgba(60,55,45,0.35)" stroke-width="3.5999999999999996" stroke-linecap="round"/><line x1="1122" y1="613" x2="1098" y2="580" stroke="rgba(60,55,45,0.35)" stroke-width="2.4" stroke-linecap="round"/><line x1="1098" y1="580" x2="1072" y2="573" stroke="rgba(60,55,45,0.35)" stroke-width="1.2" stroke-linecap="round"/><line x1="1098" y1="580" x2="1098" y2="556" stroke="rgba(60,55,45,0.35)" stroke-width="1.2" stroke-linecap="round"/><line x1="1122" y1="613" x2="1145" y2="583" stroke="rgba(60,55,45,0.35)" stroke-width="2.4" stroke-linecap="round"/><line x1="1145" y1="583" x2="1145" y2="558" stroke="rgba(60,55,45,0.35)" stroke-width="1.2" stroke-linecap="round"/><line x1="1145" y1="583" x2="1167" y2="576" stroke="rgba(60,55,45,0.35)" stroke-width="1.2" stroke-linecap="round"/>
<rect width="1280" height="875" fill="url(#vigbx1-u1-l5)"/>
<rect width="1280" height="875" fill="rgba(253,251,245,0.18)" filter="url(#paper-bx1-u1-l5)"/>
</svg>