<svg xmlns="http://www.w3.org/2000/svg" viewBox="0 0 1280 875" preserveAspectRatio="xMidYMid slice">
<defs>
<linearGradient id="bgbx1-u5-l1" x1="0" y1="0" x2="0" y2="1">
<stop offset="0" stop-color="rgb(240,235,226)"/><stop offset="1" stop-color="rgb(236,243,246)"/>
</linearGradient>
<filter id="fbx1-u5-l1-wc" x="-50%" y="-50%" width="200%" height="200%">
<feTurbulence type="fractalNoise" baseFrequency="0.0127" numOctaves="4" seed="6990" result="noise"/>
<feDisplacementMap in="SourceGraphic" in2="noise" scale="35" xChannelSelector="R" yChannelSelector="G"/>
<feGaussianBlur stdDeviation="36"/>
</filter>
<filter id="fbx1-u5-l1-blur" x="-30%" y="-30%" width="160%" height="160%">
<feGaussianBlur stdDeviation="43"/>
</filter>
<filter id="paper-bx1-u5-l1" x="0" y="0" width="100%" height="100%">
<feTurbulence type="fractalNoise" baseFrequency="0.65" numOctaves="3" result="noise"/>
<feColorMatrix type="saturate" values="0" in="noise" result="gray"/>
<feComponentTransfer in="gray" result="alpha"><feFuncA type="linear" slope="0.12"/></feComponentTransfer>
</filter>
<radialGradient id="vigbx1-u5-l1" cx="50%" cy="45%" r="70%">
<stop offset="0" stop-color="rgba(255,255,255,0.45)"/>
<stop offset="1" stop-color="rgba(255,255,255,0)"/>
</radialGradient>
</defs>
<rect width="1280" height="875" fill="url(#bgbx1-u5-l1)"/>
<g filter="url(#fbx1-u5-l1-blur)" opacity="0.85"><ellipse cx="398" cy="775" rx="273" ry="123" fill="#8ab88e" opacity="0.22" filter="url(#fbx1-u5-l1-wc)"/><ellipse cx="425" cy="162" rx="364" ry="269" fill="#d4c86e" opacity="0.24" filter="url(#fbx1-u5-l1-wc)"/><ellipse cx="82" cy="236" rx="300" ry="148" fill="#a7c9d6" opacity="0.49" filter="url(#fbx1-u5-l1-wc)"/><ellipse cx="324" cy="65" rx="160" ry="151" fill="#4a6b4d" opacity="0.38" filter="url(#fbx1-u5-l1-wc)"/></g>
<path d="M0 540 Q207.69230769230768 480 400 520 T800 500 T1280 540 L1280 875 L0 875 Z" fill="rgba(138,184,142,0.22)" filter="url(#fbx1-u5-l1-blur)"/><path d="M0 620 Q342.5274725274725 560 600 600 T1280 580 L1280 875 L0 875 Z" fill="rgba(212,200,110,0.2)" filter="url(#fbx1-u5-l1-blur)"/><path d="M0 875 L0 441 L213 405 L427 431 L640 399 L853 391 L1067 391 L1280 438 L1280 875 Z" fill="rgba(201,184,150,0.18)" filter="url(#fbx1-u5-l1-blur)"/><g transform="translate(937.2161172161171,554.8717948717949)" opacity="0.55"><rect x="0" y="20" width="70" height="50" fill="rgba(74,107,77,0.5)"/><path d="M-10 20 L35 -15 L80 20 Z" fill="rgba(74,107,77,0.65)"/><rect x="90" y="35" width="55" height="35" fill="rgba(74,107,77,0.4)"/><path d="M85 35 L117 10 L150 35 Z" fill="rgba(74,107,77,0.55)"/></g><line x1="1066" y1="713" x2="1066" y2="648" stroke="rgba(60,55,45,0.35)" stroke-width="3.5999999999999996" stroke-linecap="round"/><line x1="1066" y1="648" x2="1041" y2="614" stroke="rgba(60,55,45,0.35)" stroke-width="2.4" stroke-linecap="round"/><line x1="1041" y1="614" x2="1015" y2="607" stroke="rgba(60,55,45,0.35)" stroke-width="1.2" stroke-linecap="round"/><line x1="1041" y1="614" x2="1041" y2="589" stroke="rgba(60,55,45,0.35)" stroke-width="1.2" stroke-linecap="round"/><line x1="1066" y1="648" x2="1089" y2="617" stroke="rgba(60,55,45,0.35)" stroke-width="2.4" stroke-linecap="round"/><line x1="1089" y1="617" x2="1089" y2="592" stroke="rgba(60,55,45,0.35)" stroke-width="1.2" stroke-linecap="round"/><line x1="1089" y1="617" x2="1112" y2="610" stroke="rgba(60,55,45,0.35)" stroke-width="1.2" stroke-linecap="round"/>
<rect width="1280" height="875" fill="url(#vigbx1-u5-l1)"/>
<rect width="1280" height="875" fill="rgba(253,251,245,0.18)" filter="url(#paper-bx1-u5-l1)"/>
</svg>