<svg xmlns="http://www.w3.org/2000/svg" viewBox="0 0 1280 875" preserveAspectRatio="xMidYMid slice">
<defs>
<linearGradient id="bgbx2-u1-l1" x1="0" y1="0" x2="0" y2="1">
<stop offset="0" stop-color="rgb(240,235,226)"/><stop offset="1" stop-color="rgb(236,243,246)"/>
</linearGradient>
<filter id="fbx2-u1-l1-wc" x="-50%" y="-50%" width="200%" height="200%">
<feTurbulence type="fractalNoise" baseFrequency="0.0181" numOctaves="4" seed="4009" result="noise"/>
<feDisplacementMap in="SourceGraphic" in2="noise" scale="63" xChannelSelector="R" yChannelSelector="G"/>
<feGaussianBlur stdDeviation="38"/>
</filter>
<filter id="fbx2-u1-l1-blur" x="-30%" y="-30%" width="160%" height="160%">
<feGaussianBlur stdDeviation="30"/>
</filter>
<filter id="paper-bx2-u1-l1" x="0" y="0" width="100%" height="100%">
<feTurbulence type="fractalNoise" baseFrequency="0.65" numOctaves="3" result="noise"/>
<feColorMatrix type="saturate" values="0" in="noise" result="gray"/>
<feComponentTransfer in="gray" result="alpha"><feFuncA type="linear" slope="0.12"/></feComponentTransfer>
</filter>
<radialGradient id="vigbx2-u1-l1" cx="50%" cy="45%" r="70%">
<stop offset="0" stop-color="rgba(255,255,255,0.45)"/>
<stop offset="1" stop-color="rgba(255,255,255,0)"/>
</radialGradient>
</defs>
<rect width="1280" height="875" fill="url(#bgbx2-u1-l1)"/>
<g filter="url(#fbx2-u1-l1-blur)" opacity="0.85"><ellipse cx="1181" cy="602" rx="296" ry="317" fill="#8ab88e" opacity="0.50" filter="url(#fbx2-u1-l1-wc)"/><ellipse cx="928" cy="762" rx="387" ry="138" fill="#d4c86e" opacity="0.48" filter="url(#fbx2-u1-l1-wc)"/><ellipse cx="1198" cy="81" rx="347" ry="218" fill="#a7c9d6" opacity="0.32" filter="url(#fbx2-u1-l1-wc)"/><ellipse cx="933" cy="809" rx="420" ry="296" fill="#4a6b4d" opacity="0.49" filter="url(#fbx2-u1-l1-wc)"/><ellipse cx="569" cy="94" rx="412" ry="320" fill="#c9b896" opacity="0.36" filter="url(#fbx2-u1-l1-wc)"/></g>
<path d="M0 540 Q243.93162393162393 480 400 520 T800 500 T1280 540 L1280 875 L0 875 Z" fill="rgba(138,184,142,0.22)" filter="url(#fbx2-u1-l1-blur)"/><path d="M0 620 Q447.3992673992674 560 600 600 T1280 580 L1280 875 L0 875 Z" fill="rgba(212,200,110,0.2)" filter="url(#fbx2-u1-l1-blur)"/><path d="M0 875 L0 397 L213 404 L427 345 L640 429 L853 395 L1067 410 L1280 387 L1280 875 Z" fill="rgba(201,184,150,0.18)" filter="url(#fbx2-u1-l1-blur)"/><g transform="translate(754.5543345543346,561.7875457875458)" opacity="0.55"><rect x="0" y="20" width="70" height="50" fill="rgba(74,107,77,0.5)"/><path d="M-10 20 L35 -15 L80 20 Z" fill="rgba(74,107,77,0.65)"/><rect x="90" y="35" width="55" height="35" fill="rgba(74,107,77,0.4)"/><path d="M85 35 L117 10 L150 35 Z" fill="rgba(74,107,77,0.55)"/></g><g opacity="0.35"><ellipse cx="1019.9267399267399" cy="510.29059829059827" rx="40" ry="18" fill="rgba(240,240,235,0.45)" filter="url(#fbx2-u1-l1-blur)"/><ellipse cx="998.974358974359" cy="514.9206349206349" rx="50" ry="23" fill="rgba(240,240,235,0.45)" filter="url(#fbx2-u1-l1-blur)"/><ellipse cx="746.8864468864468" cy="517.6166056166056" rx="60" ry="28" fill="rgba(240,240,235,0.45)" filter="url(#fbx2-u1-l1-blur)"/><ellipse cx="1019.4871794871794" cy="481.13308913308913" rx="70" ry="33" fill="rgba(240,240,235,0.45)" filter="url(#fbx2-u1-l1-blur)"/></g><line x1="1162" y1="720" x2="1162" y2="668" stroke="rgba(60,55,45,0.35)" stroke-width="3.5999999999999996" stroke-linecap="round"/><line x1="1162" y1="668" x2="1141" y2="641" stroke="rgba(60,55,45,0.35)" stroke-width="2.4" stroke-linecap="round"/><line x1="1141" y1="641" x2="1120" y2="635" stroke="rgba(60,55,45,0.35)" stroke-width="1.2" stroke-linecap="round"/><line x1="1141" y1="641" x2="1141" y2="621" stroke="rgba(60,55,45,0.35)" stroke-width="1.2" stroke-linecap="round"/><line x1="1162" y1="668" x2="1180" y2="643" stroke="rgba(60,55,45,0.35)" stroke-width="2.4" stroke-linecap="round"/><line x1="1180" y1="643" x2="1180" y2="623" stroke="rgba(60,55,45,0.35)" stroke-width="1.2" stroke-linecap="round"/><line x1="1180" y1="643" x2="1198" y2="638" stroke="rgba(60,55,45,0.35)" stroke-width="1.2" stroke-linecap="round"/>
<rect width="1280" height="875" fill="url(#vigbx2-u1-l1)"/>
<rect width="1280" height="875" fill="rgba(253,251,245,0.18)" filter="url(#paper-bx2-u1-l1)"/>
</svg>