<svg xmlns="http://www.w3.org/2000/svg" viewBox="0 0 1280 875" preserveAspectRatio="xMidYMid slice">
<defs>
<linearGradient id="bgxb3-u3-l4" x1="0" y1="0" x2="0" y2="1">
<stop offset="0" stop-color="rgb(231,240,244)"/><stop offset="1" stop-color="rgb(219,236,233)"/>
</linearGradient>
<filter id="fxb3-u3-l4-wc" x="-50%" y="-50%" width="200%" height="200%">
<feTurbulence type="fractalNoise" baseFrequency="0.0165" numOctaves="4" seed="1681" result="noise"/>
<feDisplacementMap in="SourceGraphic" in2="noise" scale="60" xChannelSelector="R" yChannelSelector="G"/>
<feGaussianBlur stdDeviation="24"/>
</filter>
<filter id="fxb3-u3-l4-blur" x="-30%" y="-30%" width="160%" height="160%">
<feGaussianBlur stdDeviation="47"/>
</filter>
<filter id="paper-xb3-u3-l4" x="0" y="0" width="100%" height="100%">
<feTurbulence type="fractalNoise" baseFrequency="0.65" numOctaves="3" result="noise"/>
<feColorMatrix type="saturate" values="0" in="noise" result="gray"/>
<feComponentTransfer in="gray" result="alpha"><feFuncA type="linear" slope="0.12"/></feComponentTransfer>
</filter>
<radialGradient id="vigxb3-u3-l4" cx="50%" cy="45%" r="70%">
<stop offset="0" stop-color="rgba(255,255,255,0.45)"/>
<stop offset="1" stop-color="rgba(255,255,255,0)"/>
</radialGradient>
</defs>
<rect width="1280" height="875" fill="url(#bgxb3-u3-l4)"/>
<g filter="url(#fxb3-u3-l4-blur)" opacity="0.85"><ellipse cx="1162" cy="649" rx="418" ry="320" fill="#d66b56" opacity="0.50" filter="url(#fxb3-u3-l4-wc)"/><ellipse cx="778" cy="712" rx="191" ry="315" fill="#e8a16f" opacity="0.50" filter="url(#fxb3-u3-l4-wc)"/><ellipse cx="1200" cy="433" rx="278" ry="217" fill="#5ca89c" opacity="0.47" filter="url(#fxb3-u3-l4-wc)"/><ellipse cx="1196" cy="815" rx="420" ry="282" fill="#7a4a3e" opacity="0.48" filter="url(#fxb3-u3-l4-wc)"/><ellipse cx="708" cy="805" rx="420" ry="320" fill="#a8c8d8" opacity="0.29" filter="url(#fxb3-u3-l4-wc)"/><ellipse cx="894" cy="242" rx="406" ry="320" fill="#d66b56" opacity="0.50" filter="url(#fxb3-u3-l4-wc)"/></g>
<path d="M0 875 L0 433 L183 465 L366 450 L549 470 L731 514 L914 469 L1097 451 L1280 506 L1280 875 Z" fill="rgba(122,74,62,0.18)" filter="url(#fxb3-u3-l4-blur)"/><path d="M0 875 L0 518 L256 545 L512 547 L768 551 L1024 620 L1280 553 L1280 875 Z" fill="rgba(214,107,86,0.14)" filter="url(#fxb3-u3-l4-blur)"/><path d="M0 700 Q520 560 640 620 T1280 560 L1280 875 L0 875 Z" fill="rgba(168,200,216,0.25)" filter="url(#fxb3-u3-l4-blur)"/><path d="M0 875 L0 670 L320 700 L640 691 L960 705 L1280 762 L1280 875 Z" fill="rgba(232,161,111,0.12)"/><circle cx="981" cy="246" r="50.962637362637366" fill="rgba(255,248,230,0.55)" filter="url(#fxb3-u3-l4-blur)"/><path d="M660.3174603174604 196.71794871794873 q8 -8 16 0 q-8 -4 -16 0" stroke="rgba(50,55,60,0.28)" stroke-width="2" fill="none"/><path d="M1099.6336996336995 200 q8 -8 16 0 q-8 -4 -16 0" stroke="rgba(50,55,60,0.28)" stroke-width="2" fill="none"/><path d="M846.7643467643468 134.35897435897436 q8 -8 16 0 q-8 -4 -16 0" stroke="rgba(50,55,60,0.28)" stroke-width="2" fill="none"/><path d="M841.3919413919414 186.8131868131868 q8 -8 16 0 q-8 -4 -16 0" stroke="rgba(50,55,60,0.28)" stroke-width="2" fill="none"/><path d="M1098.2905982905982 200 q8 -8 16 0 q-8 -4 -16 0" stroke="rgba(50,55,60,0.28)" stroke-width="2" fill="none"/><line x1="1180" y1="759" x2="1180" y2="705" stroke="rgba(60,55,45,0.35)" stroke-width="3.5999999999999996" stroke-linecap="round"/><line x1="1180" y1="705" x2="1159" y2="677" stroke="rgba(60,55,45,0.35)" stroke-width="2.4" stroke-linecap="round"/><line x1="1159" y1="677" x2="1137" y2="671" stroke="rgba(60,55,45,0.35)" stroke-width="1.2" stroke-linecap="round"/><line x1="1159" y1="677" x2="1159" y2="656" stroke="rgba(60,55,45,0.35)" stroke-width="1.2" stroke-linecap="round"/><line x1="1180" y1="705" x2="1199" y2="679" stroke="rgba(60,55,45,0.35)" stroke-width="2.4" stroke-linecap="round"/><line x1="1199" y1="679" x2="1199" y2="658" stroke="rgba(60,55,45,0.35)" stroke-width="1.2" stroke-linecap="round"/><line x1="1199" y1="679" x2="1218" y2="674" stroke="rgba(60,55,45,0.35)" stroke-width="1.2" stroke-linecap="round"/><line x1="611" y1="807" x2="611" y2="742" stroke="rgba(60,55,45,0.35)" stroke-width="3.5999999999999996" stroke-linecap="round"/><line x1="611" y1="742" x2="586" y2="708" stroke="rgba(60,55,45,0.35)" stroke-width="2.4" stroke-linecap="round"/><line x1="586" y1="708" x2="559" y2="700" stroke="rgba(60,55,45,0.35)" stroke-width="1.2" stroke-linecap="round"/><line x1="586" y1="708" x2="586" y2="683" stroke="rgba(60,55,45,0.35)" stroke-width="1.2" stroke-linecap="round"/><line x1="611" y1="742" x2="634" y2="711" stroke="rgba(60,55,45,0.35)" stroke-width="2.4" stroke-linecap="round"/><line x1="634" y1="711" x2="634" y2="685" stroke="rgba(60,55,45,0.35)" stroke-width="1.2" stroke-linecap="round"/><line x1="634" y1="711" x2="657" y2="704" stroke="rgba(60,55,45,0.35)" stroke-width="1.2" stroke-linecap="round"/><line x1="1180" y1="820" x2="1180" y2="759" stroke="rgba(60,55,45,0.35)" stroke-width="3.5999999999999996" stroke-linecap="round"/><line x1="1180" y1="759" x2="1156" y2="727" stroke="rgba(60,55,45,0.35)" stroke-width="2.4" stroke-linecap="round"/><line x1="1156" y1="727" x2="1131" y2="720" stroke="rgba(60,55,45,0.35)" stroke-width="1.2" stroke-linecap="round"/><line x1="1156" y1="727" x2="1156" y2="703" stroke="rgba(60,55,45,0.35)" stroke-width="1.2" stroke-linecap="round"/><line x1="1180" y1="759" x2="1202" y2="729" stroke="rgba(60,55,45,0.35)" stroke-width="2.4" stroke-linecap="round"/><line x1="1202" y1="729" x2="1202" y2="705" stroke="rgba(60,55,45,0.35)" stroke-width="1.2" stroke-linecap="round"/><line x1="1202" y1="729" x2="1223" y2="723" stroke="rgba(60,55,45,0.35)" stroke-width="1.2" stroke-linecap="round"/><line x1="1105" y1="767" x2="1105" y2="703" stroke="rgba(60,55,45,0.35)" stroke-width="3.5999999999999996" stroke-linecap="round"/><line x1="1105" y1="703" x2="1080" y2="669" stroke="rgba(60,55,45,0.35)" stroke-width="2.4" stroke-linecap="round"/><line x1="1080" y1="669" x2="1053" y2="661" stroke="rgba(60,55,45,0.35)" stroke-width="1.2" stroke-linecap="round"/><line x1="1080" y1="669" x2="1080" y2="644" stroke="rgba(60,55,45,0.35)" stroke-width="1.2" stroke-linecap="round"/><line x1="1105" y1="703" x2="1128" y2="671" stroke="rgba(60,55,45,0.35)" stroke-width="2.4" stroke-linecap="round"/><line x1="1128" y1="671" x2="1128" y2="646" stroke="rgba(60,55,45,0.35)" stroke-width="1.2" stroke-linecap="round"/><line x1="1128" y1="671" x2="1150" y2="665" stroke="rgba(60,55,45,0.35)" stroke-width="1.2" stroke-linecap="round"/><line x1="1180" y1="820" x2="1180" y2="770" stroke="rgba(60,55,45,0.35)" stroke-width="3.5999999999999996" stroke-linecap="round"/><line x1="1180" y1="770" x2="1160" y2="744" stroke="rgba(60,55,45,0.35)" stroke-width="2.4" stroke-linecap="round"/><line x1="1160" y1="744" x2="1140" y2="738" stroke="rgba(60,55,45,0.35)" stroke-width="1.2" stroke-linecap="round"/><line x1="1160" y1="744" x2="1160" y2="725" stroke="rgba(60,55,45,0.35)" stroke-width="1.2" stroke-linecap="round"/><line x1="1180" y1="770" x2="1198" y2="746" stroke="rgba(60,55,45,0.35)" stroke-width="2.4" stroke-linecap="round"/><line x1="1198" y1="746" x2="1198" y2="727" stroke="rgba(60,55,45,0.35)" stroke-width="1.2" stroke-linecap="round"/><line x1="1198" y1="746" x2="1215" y2="741" stroke="rgba(60,55,45,0.35)" stroke-width="1.2" stroke-linecap="round"/><line x1="879" y1="729" x2="879" y2="665" stroke="rgba(60,55,45,0.35)" stroke-width="3.5999999999999996" stroke-linecap="round"/><line x1="879" y1="665" x2="854" y2="632" stroke="rgba(60,55,45,0.35)" stroke-width="2.4" stroke-linecap="round"/><line x1="854" y1="632" x2="828" y2="624" stroke="rgba(60,55,45,0.35)" stroke-width="1.2" stroke-linecap="round"/><line x1="854" y1="632" x2="854" y2="607" stroke="rgba(60,55,45,0.35)" stroke-width="1.2" stroke-linecap="round"/><line x1="879" y1="665" x2="902" y2="634" stroke="rgba(60,55,45,0.35)" stroke-width="2.4" stroke-linecap="round"/><line x1="902" y1="634" x2="902" y2="609" stroke="rgba(60,55,45,0.35)" stroke-width="1.2" stroke-linecap="round"/><line x1="902" y1="634" x2="924" y2="628" stroke="rgba(60,55,45,0.35)" stroke-width="1.2" stroke-linecap="round"/>
<rect width="1280" height="875" fill="url(#vigxb3-u3-l4)"/>
<rect width="1280" height="875" fill="rgba(253,251,245,0.18)" filter="url(#paper-xb3-u3-l4)"/>
</svg>